{"title":"Wow, it's so BIG! - Greek Subtitles","uid":7706123,"size":78907955,"categoryP":"porn","categoryS":"movie_clips","magnet":"?xt=urn:btih:efc708ba41391f18fe46b351504349c79468347d&amp;dn=Wow%2C+it%27s+so+BIG%21+-+Greek+Subtitles&amp;tr=udp%3A%2F%2Ftracker.openbittorrent.com%3A80&amp;tr=udp%3A%2F%2Fopen.demonii.com%3A1337&amp;tr=udp%3A%2F%2Ftracker.coppersurfer.tk%3A6969&amp;tr=udp%3A%2F%2Fexodus.desync.com%3A6969","seeders":1,"leechers":0,"uploader":"GaySubsGR","files":-1,"time":1349687574,"description":"General\nComplete name                            : Wow, it's so BIG!.mp4\nFormat                                   : MPEG-4\nFormat profile                           : Base Media\nCodec ID                                 : isom\nFile size                                : 75.3 MiB\nDuration                                 : 29mn 37s\nOverall bit rate mode                    : Variable\nOverall bit rate                         : 355 Kbps\nEncoded date                             : UTC 2012-10-08 07:00:42\nTagged date                              : UTC 2012-10-08 07:00:42\nWriting application                      : Lavf51.12.1\n\nVideo\nID                                       : 1\nFormat                                   : MPEG-4 Visual\nFormat profile                           : Simple@L1\nFormat settings, BVOP                    : No\nFormat settings, QPel                    : No\nFormat settings, GMC                     : No warppoints\nFormat settings, Matrix                  : Default (H.263)\nCodec ID                                 : 20\nDuration                                 : 29mn 37s\nBit rate                                 : 279 Kbps\nWidth                                    : 480 pixels\nHeight                                   : 320 pixels\nDisplay aspect ratio                     : 3:2\nFrame rate mode                          : Constant\nFrame rate                               : 20.000 fps\nColor space                              : YUV\nChroma subsampling                       : 4:2:0\nBit depth                                : 8 bits\nScan type                                : Progressive\nCompression mode                         : Lossy\nBits/(Pixel*Frame)                       : 0.091\nStream size                              : 59.1 MiB (79%)\nWriting library                          : Lavc51.40.4\nEncoded date                             : UTC 2012-10-08 07:00:42\nTagged date                              : UTC 2012-10-08 07:00:42\n\nAudio\nID                                       : 2\nFormat                                   : AAC\nFormat/Info                              : Advanced Audio Codec\nFormat profile                           : LC\nCodec ID                                 : 40\nDuration                                 : 29mn 36s\nBit rate mode                            : Variable\nBit rate                                 : 72.0 Kbps\nChannel(s)                               : 2 channels\nChannel positions                        : Front: L R\nSampling rate                            : 44.1 KHz\nCompression mode                         : Lossy\nStream size                              : 15.3 MiB (20%)\nEncoded date                             : UTC 2012-10-08 07:00:42\nTagged date                              : UTC 2012-10-08 07:00:42\n\n\n\nScreenshots: http://bayimg.com/LADJfAaeL\n\nGay clip with Greek subtitles. I hope you like it.\nHave fun!! ;)","torrent":{"xt":"urn:btih:efc708ba41391f18fe46b351504349c79468347d","amp;dn":"Wow%2C+it%27s+so+BIG%21+-+Greek+Subtitles","amp;tr":["udp%3A%2F%2Ftracker.openbittorrent.com%3A80","udp%3A%2F%2Fopen.demonii.com%3A1337","udp%3A%2F%2Ftracker.coppersurfer.tk%3A6969","udp%3A%2F%2Fexodus.desync.com%3A6969"],"infoHash":"efc708ba41391f18fe46b351504349c79468347d","infoHashBuffer":{"type":"Buffer","data":[239,199,8,186,65,57,31,24,254,70,179,81,80,67,73,199,148,104,52,125]},"announce":[],"urlList":[]}}